<svg width="152" height="26" viewBox="0 0 152 26" fill="none" xmlns="http://www.w3.org/2000/svg">
<rect width="26" height="26" rx="13" fill="#233C4E"/>
<rect x="84" width="26" height="26" rx="13" fill="#209CF7"/>
<path d="M101.453 9.82031C101.594 9.16406 101.219 8.90625 100.797 9.07031L91.4688 12.6562C90.8359 12.9141 90.8594 13.2656 91.375 13.4297L93.7422 14.1562L99.2734 10.6875C99.5312 10.5 99.7891 10.6172 99.5781 10.7812L95.1016 14.8125L94.9375 17.2734C95.1953 17.2734 95.2891 17.1797 95.4297 17.0391L96.5781 15.9141L98.9922 17.6953C99.4375 17.9531 99.7656 17.8125 99.8828 17.2969L101.453 9.82031Z" fill="white"/>
<path d="M15.4219 6.79464V8.5625H14.3705C13.9866 8.5625 13.7277 8.64286 13.5938 8.80357C13.4598 8.96429 13.3929 9.20536 13.3929 9.52679V10.7924H15.3549L15.0938 12.7746H13.3929V17.8571H11.3438V12.7746H9.63616V10.7924H11.3438V9.33259C11.3438 8.50223 11.5759 7.85937 12.0402 7.40402C12.5045 6.9442 13.1228 6.71428 13.8951 6.71428C14.5513 6.71428 15.0603 6.74107 15.4219 6.79464Z" fill="white"/>
<rect x="126" width="26" height="26" rx="13" fill="#1E6CA4"/>
<path d="M144.837 10.1964C144.94 10.4821 144.605 11.1384 143.833 12.1652C143.725 12.308 143.58 12.4978 143.397 12.7344C143.049 13.1808 142.848 13.4732 142.795 13.6116C142.719 13.7946 142.75 13.9754 142.888 14.154C142.964 14.2478 143.145 14.4308 143.431 14.7031H143.438L143.444 14.7098L143.451 14.7165L143.464 14.7299C144.094 15.3147 144.52 15.808 144.743 16.2098C144.757 16.2321 144.77 16.2612 144.783 16.2969C144.801 16.3281 144.817 16.3862 144.83 16.471C144.848 16.5558 144.848 16.6317 144.83 16.6987C144.813 16.7656 144.757 16.8281 144.663 16.8862C144.569 16.9397 144.438 16.9665 144.268 16.9665L142.554 16.9933C142.446 17.0156 142.321 17.0045 142.179 16.9598C142.036 16.9152 141.92 16.8661 141.83 16.8125L141.696 16.7321C141.563 16.6384 141.406 16.4955 141.228 16.3036C141.049 16.1116 140.895 15.9397 140.766 15.7879C140.641 15.6317 140.504 15.5022 140.357 15.3996C140.214 15.2924 140.089 15.2567 139.982 15.2924C139.969 15.2969 139.951 15.3058 139.929 15.3192C139.906 15.3281 139.868 15.3594 139.815 15.4129C139.761 15.4665 139.712 15.5335 139.667 15.6138C139.627 15.6897 139.589 15.8058 139.554 15.9621C139.522 16.1138 139.509 16.2857 139.513 16.4777C139.513 16.5446 139.504 16.6071 139.487 16.6652C139.473 16.7187 139.458 16.7589 139.44 16.7857L139.413 16.8192C139.333 16.904 139.214 16.9531 139.058 16.9665H138.288C137.971 16.9844 137.645 16.9487 137.31 16.8594C136.975 16.7656 136.681 16.6473 136.426 16.5045C136.176 16.3571 135.946 16.2098 135.737 16.0625C135.531 15.9107 135.375 15.7812 135.268 15.6741L135.1 15.5134C135.056 15.4687 134.993 15.4018 134.913 15.3125C134.837 15.2232 134.679 15.0201 134.438 14.7031C134.196 14.3862 133.96 14.0491 133.728 13.692C133.496 13.3348 133.221 12.8638 132.904 12.279C132.592 11.6942 132.301 11.0871 132.033 10.4576C132.007 10.3862 131.993 10.3259 131.993 10.2768C131.993 10.2277 132 10.192 132.013 10.1696L132.04 10.1295C132.107 10.0446 132.234 10.0022 132.422 10.0022L134.257 9.98884C134.31 9.99777 134.362 10.0134 134.411 10.0357C134.46 10.0536 134.496 10.0714 134.518 10.0893L134.551 10.1094C134.623 10.1585 134.676 10.2299 134.712 10.3237C134.801 10.5469 134.904 10.779 135.02 11.0201C135.136 11.2567 135.228 11.4375 135.295 11.5625L135.402 11.7567C135.531 12.0246 135.656 12.2567 135.777 12.4531C135.897 12.6496 136.004 12.8036 136.098 12.9152C136.196 13.0223 136.29 13.1071 136.379 13.1696C136.469 13.2321 136.545 13.2634 136.607 13.2634C136.67 13.2634 136.73 13.2522 136.788 13.2299C136.797 13.2254 136.808 13.2143 136.821 13.1964C136.835 13.1786 136.862 13.1295 136.902 13.0491C136.942 12.9687 136.971 12.8638 136.989 12.7344C137.011 12.6049 137.033 12.4241 137.056 12.192C137.078 11.9598 137.078 11.6808 137.056 11.3549C137.047 11.1763 137.027 11.0134 136.996 10.8661C136.964 10.7187 136.933 10.6161 136.902 10.558L136.862 10.4777C136.75 10.3259 136.56 10.2299 136.292 10.1897C136.234 10.1808 136.246 10.1272 136.326 10.029C136.402 9.9442 136.487 9.87723 136.58 9.82812C136.817 9.71205 137.35 9.65848 138.181 9.66741C138.547 9.67187 138.848 9.70089 139.085 9.75446C139.174 9.77679 139.248 9.80804 139.306 9.84821C139.368 9.88393 139.415 9.9375 139.446 10.0089C139.478 10.0759 139.5 10.1473 139.513 10.2232C139.531 10.2946 139.54 10.3951 139.54 10.5246C139.54 10.654 139.538 10.7768 139.533 10.8929C139.529 11.0089 139.522 11.1674 139.513 11.3683C139.509 11.5647 139.507 11.7478 139.507 11.9174C139.507 11.9665 139.504 12.0603 139.5 12.1987C139.496 12.3371 139.493 12.4442 139.493 12.5201C139.498 12.596 139.507 12.6875 139.52 12.7946C139.533 12.8973 139.558 12.9844 139.594 13.0558C139.634 13.1228 139.685 13.1763 139.748 13.2165C139.783 13.2254 139.821 13.2344 139.862 13.2433C139.902 13.2522 139.96 13.2277 140.036 13.1696C140.112 13.1116 140.196 13.0357 140.29 12.942C140.384 12.8437 140.5 12.6942 140.638 12.4933C140.777 12.2879 140.929 12.0469 141.094 11.7701C141.362 11.3058 141.6 10.8036 141.81 10.2634C141.828 10.2187 141.85 10.1808 141.877 10.1496C141.904 10.1138 141.929 10.0893 141.951 10.0759L141.978 10.0558C141.987 10.0513 141.998 10.0469 142.011 10.0424C142.025 10.0335 142.054 10.0268 142.098 10.0223C142.143 10.0134 142.188 10.0112 142.232 10.0156L144.161 10.0022C144.335 9.97991 144.478 9.98661 144.589 10.0223C144.701 10.0536 144.77 10.0893 144.797 10.1295L144.837 10.1964Z" fill="white"/>
<rect x="42" width="26" height="26" rx="13" fill="url(#paint0_linear_10154_223)"/>
<path d="M59.1205 16.2634V11.9241H58.2165C58.3058 12.2054 58.3504 12.4978 58.3504 12.8013C58.3504 13.3638 58.2076 13.8839 57.9219 14.3616C57.6362 14.8348 57.2478 15.2098 56.7567 15.4866C56.2656 15.7634 55.7299 15.9018 55.1496 15.9018C54.2701 15.9018 53.5179 15.6004 52.8929 14.9978C52.2679 14.3906 51.9554 13.6585 51.9554 12.8013C51.9554 12.4978 52 12.2054 52.0893 11.9241H51.1451V16.2634C51.1451 16.3795 51.183 16.4777 51.2589 16.558C51.3393 16.6339 51.4375 16.6719 51.5536 16.6719H58.7121C58.8237 16.6719 58.9196 16.6339 59 16.558C59.0804 16.4777 59.1205 16.3795 59.1205 16.2634ZM56.6094 14.1138C57.0156 13.721 57.2188 13.2478 57.2188 12.6942C57.2188 12.1406 57.0156 11.6696 56.6094 11.2812C56.2076 10.8884 55.721 10.692 55.1496 10.692C54.5826 10.692 54.096 10.8884 53.6897 11.2812C53.2879 11.6696 53.0871 12.1406 53.0871 12.6942C53.0871 13.2478 53.2879 13.721 53.6897 14.1138C54.096 14.5022 54.5826 14.6964 55.1496 14.6964C55.721 14.6964 56.2076 14.5022 56.6094 14.1138ZM59.1205 10.2835V9.17857C59.1205 9.05357 59.0759 8.94643 58.9866 8.85714C58.8973 8.76339 58.7879 8.71652 58.6585 8.71652H57.4933C57.3638 8.71652 57.2545 8.76339 57.1652 8.85714C57.0759 8.94643 57.0312 9.05357 57.0312 9.17857V10.2835C57.0312 10.4129 57.0759 10.5223 57.1652 10.6116C57.2545 10.7009 57.3638 10.7455 57.4933 10.7455H58.6585C58.7879 10.7455 58.8973 10.7009 58.9866 10.6116C59.0759 10.5223 59.1205 10.4129 59.1205 10.2835ZM60.2857 8.89062V16.5379C60.2857 16.8996 60.1563 17.2098 59.8973 17.4688C59.6384 17.7277 59.3281 17.8571 58.9665 17.8571H51.3192C50.9576 17.8571 50.6473 17.7277 50.3884 17.4688C50.1295 17.2098 50 16.8996 50 16.5379V8.89062C50 8.52902 50.1295 8.21875 50.3884 7.95982C50.6473 7.70089 50.9576 7.57143 51.3192 7.57143H58.9665C59.3281 7.57143 59.6384 7.70089 59.8973 7.95982C60.1563 8.21875 60.2857 8.52902 60.2857 8.89062Z" fill="white"/>
<defs>
<linearGradient id="paint0_linear_10154_223" x1="55" y1="0" x2="55" y2="26" gradientUnits="userSpaceOnUse">
<stop stop-color="#D828DC"/>
<stop offset="0.177083" stop-color="#F015A6"/>
<stop offset="1" stop-color="#FFC90A"/>
</linearGradient>
</defs>
</svg>
